<svg width="100" height="100" viewBox="0 0 100 100" fill="none" xmlns="http://www.w3.org/2000/svg">
<path d="M24 39.2696V39.7801C26.6717 39.7801 28.5641 41.9354 29.1764 43.0131C36.5556 58.2892 39.8716 67.321 46.5424 83C50.1603 73.8682 57.6633 54.856 58.732 51.8613C60.0678 48.1178 63.0735 45.3953 64.0754 44.5445C65.0772 43.6937 70.2536 39.7801 73.4263 34.8456C75.9644 30.8979 76.1536 21.9703 75.931 18C75.4957 19.3535 72.0187 21.0856 64.0754 25.3168C55.899 29.672 56.6725 39.5532 57.7301 43.3534C60.4018 35.1859 66.8584 31.2155 69.7527 30.2513C68.8065 30.9319 66.1459 33.178 63.0735 36.7173C59.3806 40.9712 59.3999 45.2251 56.7282 51.8613L49.715 69.3874C46.1528 61.6169 38.8947 45.4634 38.3603 43.0131C37.826 40.5628 40.5867 39.8368 42.0339 39.7801V39.2696H24Z" fill="#99B085"/>
</svg>
